<?xml version="1.0" encoding="UTF-8"?>
<!DOCTYPE svg PUBLIC "-//W3C//DTD SVG 1.1//EN" "http://www.w3.org/Graphics/SVG/1.1/DTD/svg11.dtd">
<svg xmlns="http://www.w3.org/2000/svg" version="1.1" width="3508px" height="3508px" style="shape-rendering:geometricPrecision; text-rendering:geometricPrecision; image-rendering:optimizeQuality; fill-rule:evenodd; clip-rule:evenodd" xmlns:xlink="http://www.w3.org/1999/xlink">
<g><path style="opacity:0.999" fill="#fefefe" d="M 1695.5,-0.5 C 1734.17,-0.5 1772.83,-0.5 1811.5,-0.5C 2225.48,17.2865 2589.15,159.787 2902.5,427C 3167.21,659.063 3348.05,945.229 3445,1285.5C 3481.74,1419.88 3502.58,1556.55 3507.5,1695.5C 3507.5,1734.17 3507.5,1772.83 3507.5,1811.5C 3489.71,2225.48 3347.21,2589.15 3080,2902.5C 2847.94,3167.21 2561.77,3348.05 2221.5,3445C 2087.12,3481.74 1950.45,3502.58 1811.5,3507.5C 1772.83,3507.5 1734.17,3507.5 1695.5,3507.5C 1281.52,3489.71 917.849,3347.21 604.5,3080C 339.786,2847.94 158.953,2561.77 62,2221.5C 25.2561,2087.12 4.42281,1950.45 -0.5,1811.5C -0.5,1772.83 -0.5,1734.17 -0.5,1695.5C 17.2864,1281.52 159.786,917.85 427,604.5C 659.063,339.786 945.229,158.953 1285.5,62C 1419.88,25.2562 1556.55,4.42283 1695.5,-0.5 Z"/></g>
<g><path style="opacity:1" fill="#0603ff" d="M 1609.5,176.5 C 1628.71,175.531 1647.71,176.864 1666.5,180.5C 1664.83,195.171 1663.17,209.838 1661.5,224.5C 1635.93,218.466 1610.6,219.299 1585.5,227C 1546.85,243.12 1531.35,271.954 1539,313.5C 1546.94,345.441 1567.11,364.274 1599.5,370C 1627,372.201 1653,367.034 1677.5,354.5C 1682.29,366.709 1686.79,379.042 1691,391.5C 1691.67,392.833 1691.67,394.167 1691,395.5C 1666.94,407.557 1641.44,414.39 1614.5,416C 1576.76,420.083 1543.43,410.083 1514.5,386C 1487.78,357.158 1476.61,322.992 1481,283.5C 1488.72,239.781 1512.88,208.948 1553.5,191C 1571.56,183.318 1590.23,178.485 1609.5,176.5 Z"/></g>
<g><path style="opacity:1" fill="#0804ff" d="M 1789.5,241.5 C 1788.51,249.984 1788.17,258.651 1788.5,267.5C 1795.5,267.5 1802.5,267.5 1809.5,267.5C 1834.17,267.507 1858.84,267.84 1883.5,268.5C 1883.5,283.167 1883.5,297.833 1883.5,312.5C 1851.51,311.761 1819.51,311.428 1787.5,311.5C 1787.5,328.833 1787.5,346.167 1787.5,363.5C 1822.84,363.362 1858.17,363.695 1893.5,364.5C 1892.75,379.154 1892.42,393.821 1892.5,408.5C 1839.17,407.771 1785.83,407.104 1732.5,406.5C 1733.21,329.829 1734.21,253.163 1735.5,176.5C 1787.17,176.844 1838.84,177.51 1890.5,178.5C 1890.5,193.167 1890.5,207.833 1890.5,222.5C 1856.83,222.036 1823.17,221.702 1789.5,221.5C 1789.5,228.167 1789.5,234.833 1789.5,241.5 Z"/></g>
<g><path style="opacity:1" fill="#0603ff" d="M 1392.5,215.5 C 1396.04,215.215 1397.87,216.882 1398,220.5C 1418.83,291.839 1439.67,363.172 1460.5,434.5C 1460.29,435.086 1459.96,435.586 1459.5,436C 1443.5,440.667 1427.5,445.333 1411.5,450C 1408.56,451.124 1405.56,451.458 1402.5,451C 1360.43,413.264 1319.26,374.431 1279,334.5C 1272.31,327.315 1265.81,319.982 1259.5,312.5C 1276.28,366.045 1292.45,420.045 1308,474.5C 1308.5,476.473 1308.66,478.473 1308.5,480.5C 1292.51,484.831 1276.51,489.164 1260.5,493.5C 1239.48,420.09 1218.15,346.756 1196.5,273.5C 1218.02,266.539 1239.69,260.372 1261.5,255C 1287.87,279.038 1314.54,302.705 1341.5,326C 1361.11,345.267 1379.61,365.434 1397,386.5C 1378.35,334.698 1362.18,282.031 1348.5,228.5C 1363.38,224.536 1378.05,220.203 1392.5,215.5 Z"/></g>
<g><path style="opacity:1" fill="#0703ff" d="M 2122.5,217.5 C 2146.15,223.663 2169.65,230.33 2193,237.5C 2198.66,318.12 2203.5,398.786 2207.5,479.5C 2188.13,474.866 2168.96,469.533 2150,463.5C 2149.51,442.143 2148.51,420.81 2147,399.5C 2123.74,392.684 2100.41,386.017 2077,379.5C 2074.68,380.487 2073.01,382.154 2072,384.5C 2062.36,400.3 2052.53,415.966 2042.5,431.5C 2039.5,432.476 2036.5,432.31 2033.5,431C 2017.72,426.516 2002.05,421.849 1986.5,417C 2031.97,350.558 2077.3,284.058 2122.5,217.5 Z"/></g>
<g><path style="opacity:1" fill="#b5b4ff" d="M 1789.5,241.5 C 1789.5,249.833 1789.5,258.167 1789.5,266.5C 1796.35,266.176 1803.02,266.509 1809.5,267.5C 1802.5,267.5 1795.5,267.5 1788.5,267.5C 1788.17,258.651 1788.51,249.984 1789.5,241.5 Z"/></g>
<g><path style="opacity:1" fill="#fcfcff" d="M 2144.5,264.5 C 2145.17,271.5 2145.83,278.5 2146.5,285.5C 2146.95,308.356 2147.95,331.189 2149.5,354C 2149.17,355.5 2148.83,357 2148.5,358.5C 2130.77,353.318 2113.1,347.984 2095.5,342.5C 2112.65,317.015 2128.98,291.015 2144.5,264.5 Z"/></g>
<g><path style="opacity:1" fill="#b3b2ff" d="M 2144.5,264.5 C 2144.56,263.957 2144.89,263.624 2145.5,263.5C 2146.5,270.803 2146.83,278.137 2146.5,285.5C 2145.83,278.5 2145.17,271.5 2144.5,264.5 Z"/></g>
<g><path style="opacity:1" fill="#0603ff" d="M 2351.5,304.5 C 2398.77,303.307 2438.44,319.974 2470.5,354.5C 2460.85,365.981 2451.02,377.314 2441,388.5C 2424.58,369.203 2404.08,356.37 2379.5,350C 2361.75,348.081 2353.59,355.914 2355,373.5C 2356.33,376.167 2357.67,378.833 2359,381.5C 2372.33,396.167 2386.33,410.167 2401,423.5C 2430.33,457.092 2429.49,489.925 2398.5,522C 2379.86,535.003 2359.2,539.669 2336.5,536C 2299.18,528.263 2267.35,510.763 2241,483.5C 2240.15,481.99 2239.32,480.49 2238.5,479C 2247.61,466.889 2257.11,455.056 2267,443.5C 2284.21,466.036 2306.38,481.536 2333.5,490C 2344.83,492.887 2354.33,490.054 2362,481.5C 2366.59,473.817 2366.59,466.15 2362,458.5C 2354.96,448.25 2346.46,439.417 2336.5,432C 2328.3,424.137 2320.47,415.97 2313,407.5C 2292.06,379.468 2292.39,351.802 2314,324.5C 2324.52,313.993 2337.02,307.326 2351.5,304.5 Z"/></g>
<g><path style="opacity:1" fill="#0503ff" d="M 1114.5,305.5 C 1121.73,318.279 1128.73,331.279 1135.5,344.5C 1105.83,360.333 1076.17,376.167 1046.5,392C 1053.71,405.58 1061.04,419.08 1068.5,432.5C 1096.01,417.579 1123.67,402.912 1151.5,388.5C 1158.99,400.81 1165.99,413.477 1172.5,426.5C 1144.66,441.921 1116.66,457.088 1088.5,472C 1096.75,486.507 1104.75,501.173 1112.5,516C 1113.5,516.667 1114.5,516.667 1115.5,516C 1145.83,499.833 1176.17,483.667 1206.5,467.5C 1213.63,480.253 1220.63,493.087 1227.5,506C 1180.33,531.421 1132.99,556.588 1085.5,581.5C 1049.7,514.072 1014.04,446.572 978.5,379C 980.627,377.098 982.96,375.431 985.5,374C 1028.88,351.647 1071.88,328.814 1114.5,305.5 Z"/></g>
<g><path style="opacity:1" fill="#0603ff" d="M 2545.5,408.5 C 2567.83,406.833 2588.83,411.333 2608.5,422C 2631.69,434.772 2651.03,451.938 2666.5,473.5C 2655.58,483.631 2644.25,493.297 2632.5,502.5C 2621.27,486.1 2607.27,472.6 2590.5,462C 2580.49,455.827 2569.83,454.161 2558.5,457C 2549.5,463.009 2547,471.175 2551,481.5C 2559.78,496.054 2569.78,509.721 2581,522.5C 2591.5,535.834 2598.5,550.834 2602,567.5C 2602.29,605.747 2583.79,629.247 2546.5,638C 2526.44,639.901 2507.44,636.235 2489.5,627C 2468.59,616.453 2450.09,602.62 2434,585.5C 2428.06,578.892 2422.89,571.725 2418.5,564C 2429.39,553.278 2440.72,543.111 2452.5,533.5C 2466.51,557.347 2485.85,575.514 2510.5,588C 2518.38,590.896 2526.38,591.229 2534.5,589C 2546.08,581.272 2548.91,571.105 2543,558.5C 2534.48,544.98 2524.82,532.313 2514,520.5C 2506.29,510.109 2500.29,498.775 2496,486.5C 2488.87,456.214 2498.37,432.714 2524.5,416C 2531.3,412.569 2538.3,410.069 2545.5,408.5 Z"/></g>
<g><path style="opacity:1" fill="#0503ff" d="M 919.5,415.5 C 920.496,415.414 921.329,415.748 922,416.5C 962.793,480.588 1003.96,544.422 1045.5,608C 1030.5,617.833 1015.5,627.667 1000.5,637.5C 958.67,573.491 917.004,509.324 875.5,445C 890.071,434.912 904.738,425.078 919.5,415.5 Z"/></g>
<g><path style="opacity:1" fill="#0503ff" d="M 817.5,484.5 C 824.918,497.001 831.585,510.001 837.5,523.5C 809.601,534.521 787.434,552.521 771,577.5C 758.064,601.008 758.397,624.342 772,647.5C 797.006,686.056 830.506,695.889 872.5,677C 894.767,663.234 912.433,645.068 925.5,622.5C 936.975,630.808 948.308,639.308 959.5,648C 938.575,683.926 909.575,711.259 872.5,730C 811.295,752.82 762.795,736.987 727,682.5C 702.15,635.091 705.483,589.758 737,546.5C 758.57,518.734 785.404,498.068 817.5,484.5 Z"/></g>
<g><path style="opacity:1" fill="#cc9933" d="M 1679.5,492.5 C 1730.17,492.333 1780.83,492.5 1831.5,493C 1839.94,495.942 1848.6,497.942 1857.5,499C 2048.8,513.105 2227.14,568.438 2392.5,665C 2656.96,822.834 2842.13,1046.67 2948,1336.5C 3032.69,1580.87 3043.69,1828.53 2981,2079.5C 2900.96,2372.62 2739.13,2608.79 2495.5,2788C 2259.99,2954.91 1997.32,3034.58 1707.5,3027C 1381.6,3010.79 1101.6,2890.45 867.5,2666C 651.648,2451.43 526.814,2191.93 493,1887.5C 465.007,1565.08 544.673,1272.75 732,1010.5C 894.772,791.834 1105.94,639.334 1365.5,553C 1434.34,530.914 1504.68,515.581 1576.5,507C 1603.83,504 1631.16,501 1658.5,498C 1665.77,496.72 1672.77,494.887 1679.5,492.5 Z"/></g>
<g><path style="opacity:1" fill="#fdfefe" d="M 1708.5,556.5 C 2037.62,547.118 2323.62,651.951 2566.5,871C 2772.41,1064.26 2898.57,1301.09 2945,1581.5C 2971.9,1765.89 2957.24,1946.89 2901,2124.5C 2848.69,2295.21 2762.03,2445.21 2641,2574.5C 2528.1,2694.07 2397.26,2788.9 2248.5,2859C 2029.99,2954.25 1802.65,2984.92 1566.5,2951C 1283.73,2903.4 1046.89,2773.9 856,2562.5C 663.771,2341.65 561.771,2083.98 550,1789.5C 544.98,1507.58 626.98,1254.58 796,1030.5C 970.231,806.373 1195.73,659.54 1472.5,590C 1550.3,571.753 1628.96,560.586 1708.5,556.5 Z"/></g>
<g><path style="opacity:1" fill="#0502ff" d="M 2732.5,560.5 C 2774.24,558.299 2809.41,572.299 2838,602.5C 2856.23,621.285 2867.89,643.618 2873,669.5C 2876.88,709.524 2864.38,743.358 2835.5,771C 2797.26,806.39 2753.93,814.39 2705.5,795C 2664.79,775.073 2638.63,743.239 2627,699.5C 2621.45,654.109 2636.29,616.943 2671.5,588C 2689.42,573.374 2709.75,564.207 2732.5,560.5 Z"/></g>
<g><path style="opacity:1" fill="#fefeff" d="M 2749.5,610.5 C 2782.78,608.045 2805.94,622.045 2819,652.5C 2824.86,679.74 2818.52,703.74 2800,724.5C 2780.96,746.94 2756.79,757.107 2727.5,755C 2692.11,744.274 2675.61,720.44 2678,683.5C 2688.25,645.75 2712.08,621.417 2749.5,610.5 Z"/></g>
<g><path style="opacity:1" fill="#cc9933" d="M 1721.5,642.5 C 2034.26,637.982 2303.6,742.482 2529.5,956C 2691.18,1113.78 2797.01,1303.62 2847,1525.5C 2889.64,1733.55 2876.31,1937.89 2807,2138.5C 2712.7,2391.45 2549.53,2586.62 2317.5,2724C 2087.43,2854.83 1841.1,2902.16 1578.5,2866C 1332.7,2824.7 1123.54,2715.2 951,2537.5C 756.103,2330.92 651.436,2084.92 637,1799.5C 627.774,1589.41 676.108,1393.74 782,1212.5C 830.325,1130.52 885.992,1053.86 949,982.5C 1050.14,881.33 1165.64,800.497 1295.5,740C 1431.49,681.001 1573.49,648.501 1721.5,642.5 Z"/></g>
<g><path style="opacity:1" fill="#0603ff" d="M 618.5,665.5 C 627.53,677.183 635.863,689.517 643.5,702.5C 633.525,708.491 623.859,714.991 614.5,722C 605.884,729.61 598.384,738.11 592,747.5C 585.517,758.142 586.017,768.308 593.5,778C 600.088,781.911 607.088,782.578 614.5,780C 629.109,773.364 643.109,765.697 656.5,757C 668.446,750.352 681.113,745.685 694.5,743C 722.274,741.637 743.44,752.804 758,776.5C 766.876,795.027 767.876,814.027 761,833.5C 746.98,868.018 724.147,895.184 692.5,915C 687.004,918.498 681.17,921.331 675,923.5C 665.804,911.296 656.971,898.796 648.5,886C 676.03,875.334 697.53,857.501 713,832.5C 720.075,817.387 716.242,806.22 701.5,799C 690.324,798.166 679.991,800.832 670.5,807C 653.496,819.502 634.83,828.835 614.5,835C 586.435,840.869 564.269,832.036 548,808.5C 535.378,784.549 535.378,760.549 548,736.5C 565.024,706.31 588.524,682.643 618.5,665.5 Z"/></g>
<g><path style="opacity:1" fill="#0503ff" d="M 2924.5,773.5 C 2961.45,771.655 2993.78,782.822 3021.5,807C 3046.53,829.525 3064.53,856.691 3075.5,888.5C 3074.81,890.353 3073.48,891.519 3071.5,892C 3059.36,897.407 3047.02,902.241 3034.5,906.5C 3026.82,880.312 3012.49,858.479 2991.5,841C 2962.48,820.474 2933.48,820.474 2904.5,841C 2869.41,869.468 2863.24,903.301 2886,942.5C 2898.01,961.005 2913.17,976.338 2931.5,988.5C 2922.55,999.452 2913.38,1010.12 2904,1020.5C 2885.4,1009.18 2869.4,994.847 2856,977.5C 2840.28,958.729 2829.28,937.395 2823,913.5C 2813.21,865.185 2828.05,826.351 2867.5,797C 2884.74,784.71 2903.74,776.877 2924.5,773.5 Z"/></g>
<g><path style="opacity:1" fill="#0503ff" d="M 3110.5,946.5 C 3113.29,946.452 3115.13,947.785 3116,950.5C 3124.03,964.372 3131.87,978.372 3139.5,992.5C 3073.83,1030.33 3008.17,1068.17 2942.5,1106C 2941.36,1106.75 2940.36,1106.58 2939.5,1105.5C 2930.96,1090.25 2922.29,1075.09 2913.5,1060C 2979.23,1022.14 3044.9,984.306 3110.5,946.5 Z"/></g>
<g><path style="opacity:1" fill="#fdfefe" d="M 1327.5,950.5 C 1380.59,950.149 1412.09,976.149 1422,1028.5C 1425.76,1053.21 1420.76,1075.88 1407,1096.5C 1394.01,1111.75 1377.51,1120.25 1357.5,1122C 1341.19,1125.09 1326.19,1122.09 1312.5,1113C 1305.46,1106.29 1298.13,1099.96 1290.5,1094C 1285.91,1091.1 1280.91,1089.6 1275.5,1089.5C 1274.09,1104.12 1273.25,1118.79 1273,1133.5C 1272.33,1260.84 1272.99,1388.17 1275,1515.5C 1277.67,1691.84 1280.67,1868.17 1284,2044.5C 1285.61,2115.52 1287.78,2186.52 1290.5,2257.5C 1291.35,2294.14 1288.52,2330.47 1282,2366.5C 1273.79,2411.77 1252.96,2449.93 1219.5,2481C 1198.88,2499.31 1174.88,2510.64 1147.5,2515C 1102.94,2519.08 1073.77,2499.92 1060,2457.5C 1053.54,2430.9 1057.21,2405.9 1071,2382.5C 1090.59,2358.39 1115.42,2350.56 1145.5,2359C 1159.73,2364.57 1172.39,2372.57 1183.5,2383C 1190.7,2387.19 1194.86,2385.02 1196,2376.5C 1196.76,2338.79 1195.76,2301.12 1193,2263.5C 1188.93,1957.5 1184.93,1651.5 1181,1345.5C 1177.96,1276.19 1176.63,1206.86 1177,1137.5C 1177.14,1107.6 1184.47,1079.6 1199,1053.5C 1217.52,1020.31 1242.35,992.815 1273.5,971C 1290.42,961.028 1308.42,954.194 1327.5,950.5 Z"/></g>
<g><path style="opacity:1" fill="#0503ff" d="M 384.5,966.5 C 464.048,981.476 543.714,995.809 623.5,1009.5C 614.465,1026.56 605.131,1043.56 595.5,1060.5C 593.235,1061.65 590.902,1061.81 588.5,1061C 571.426,1058.05 554.426,1054.72 537.5,1051C 535.167,1050.33 532.833,1050.33 530.5,1051C 517.951,1072.28 506.117,1093.78 495,1115.5C 510.242,1130.07 524.742,1145.24 538.5,1161C 529.3,1177.23 519.967,1193.4 510.5,1209.5C 456.344,1149.84 402.344,1090.01 348.5,1030C 360.638,1008.89 372.638,987.721 384.5,966.5 Z"/></g>
<g><path style="opacity:1" fill="#fdfdfc" d="M 1774.5,977.5 C 1811.56,973.509 1844.56,983.009 1873.5,1006C 1890.11,1020.39 1899.45,1038.56 1901.5,1060.5C 1898.97,1087.54 1885.3,1106.71 1860.5,1118C 1826.78,1131.9 1791.78,1136.56 1755.5,1132C 1740.61,1129.04 1726.61,1123.7 1713.5,1116C 1703,1108.92 1692.34,1102.08 1681.5,1095.5C 1632.48,1133.14 1578.48,1142.64 1519.5,1124C 1501.5,1116.66 1486.33,1105.49 1474,1090.5C 1453.41,1054.03 1460.57,1024.2 1495.5,1001C 1533.12,979.795 1573.12,973.795 1615.5,983C 1640.51,989.001 1662.51,1000.5 1681.5,1017.5C 1709.33,996.749 1740.33,983.416 1774.5,977.5 Z"/></g>
<g><path style="opacity:1" fill="#cc9933" d="M 1565.5,1004.5 C 1587.97,1002.37 1609.63,1005.54 1630.5,1014C 1648.36,1021.19 1660.86,1033.69 1668,1051.5C 1669.6,1068.47 1663.1,1081.3 1648.5,1090C 1615.71,1107.57 1581.04,1112.57 1544.5,1105C 1524.08,1100.71 1506.91,1090.88 1493,1075.5C 1481.99,1057.5 1484.82,1042 1501.5,1029C 1521.18,1016.39 1542.51,1008.22 1565.5,1004.5 Z"/></g>
<g><path style="opacity:1" fill="#cc9933" d="M 1770.5,1004.5 C 1793.9,1002.76 1816.57,1005.92 1838.5,1014C 1856.78,1021.28 1869.28,1034.11 1876,1052.5C 1877.09,1061.57 1875.09,1069.91 1870,1077.5C 1863.4,1085.72 1855.23,1091.89 1845.5,1096C 1808.22,1110.25 1770.56,1111.25 1732.5,1099C 1714.53,1093.36 1702.03,1081.86 1695,1064.5C 1692.27,1051.04 1696.1,1039.87 1706.5,1031C 1725.47,1016.34 1746.81,1007.51 1770.5,1004.5 Z"/></g>
<g><path style="opacity:1" fill="#fdfcff" d="M 398.5,1018.5 C 429.358,1025.72 460.358,1032.39 491.5,1038.5C 482.656,1054.86 473.323,1070.86 463.5,1086.5C 442.52,1063.19 420.853,1040.52 398.5,1018.5 Z"/></g>
<g><path style="opacity:1" fill="#0503ff" d="M 3191.5,1108.5 C 3194.45,1108.22 3197.28,1108.56 3200,1109.5C 3210.83,1131.14 3220.5,1153.14 3229,1175.5C 3171.12,1231.51 3112.95,1287.18 3054.5,1342.5C 3045.88,1324.81 3037.55,1306.98 3029.5,1289C 3044.7,1274.13 3060.2,1259.63 3076,1245.5C 3076.67,1244.5 3076.67,1243.5 3076,1242.5C 3065.89,1221.29 3056.06,1199.95 3046.5,1178.5C 3045.17,1178.17 3043.83,1177.83 3042.5,1177.5C 3022.51,1180.43 3002.51,1182.93 2982.5,1185C 2975,1169.18 2967.5,1153.35 2960,1137.5C 2959.51,1136.21 2959.34,1134.87 2959.5,1133.5C 3037,1125.44 3114.34,1117.11 3191.5,1108.5 Z"/></g>
<g><path style="opacity:1" fill="#fcfcff" d="M 3170.5,1155.5 C 3173.19,1155.34 3175.85,1155.5 3178.5,1156C 3155.12,1176.7 3132.12,1197.87 3109.5,1219.5C 3101.1,1202.76 3093.6,1185.76 3087,1168.5C 3105.74,1165.7 3124.58,1163.2 3143.5,1161C 3152.72,1159.61 3161.72,1157.77 3170.5,1155.5 Z"/></g>
<g><path style="opacity:1" fill="#fefefd" d="M 2354.5,1157.5 C 2402.02,1155.84 2438.52,1174.84 2464,1214.5C 2480.94,1244.32 2491.27,1276.32 2495,1310.5C 2498.25,1338.08 2499.25,1365.75 2498,1393.5C 2495.18,1441.7 2488.68,1489.36 2478.5,1536.5C 2544.7,1550.18 2607.7,1572.68 2667.5,1604C 2689.4,1616.38 2709.24,1631.55 2727,1649.5C 2763.19,1690.16 2764.85,1732.16 2732,1775.5C 2706.56,1802.25 2676.73,1822.75 2642.5,1837C 2626.72,1843.89 2610.72,1850.22 2594.5,1856C 2607.68,1878.2 2616.51,1902.03 2621,1927.5C 2623.96,1974.88 2602.46,2004.72 2556.5,2017C 2521.57,2023.95 2486.57,2024.28 2451.5,2018C 2424.16,2013.33 2397.16,2007.17 2370.5,1999.5C 2369.35,1999.82 2368.52,2000.48 2368,2001.5C 2365.62,2048.41 2355.95,2093.75 2339,2137.5C 2327.97,2166.18 2310.47,2190.02 2286.5,2209C 2256.26,2228.48 2224.26,2231.81 2190.5,2219C 2168.89,2210.03 2149.39,2197.86 2132,2182.5C 2097.15,2216.85 2057.65,2244.68 2013.5,2266C 1989.95,2276.55 1965.28,2282.39 1939.5,2283.5C 1894.84,2281.43 1861.34,2261.09 1839,2222.5C 1819.04,2183.62 1808.71,2142.29 1808,2098.5C 1806.07,2021.89 1814.9,1946.55 1834.5,1872.5C 1793.62,1862.04 1753.62,1848.87 1714.5,1833C 1679.61,1818.9 1647.61,1800.24 1618.5,1777C 1607.18,1767.02 1597.34,1755.85 1589,1743.5C 1570.98,1714.04 1569.98,1684.04 1586,1653.5C 1600.91,1630.62 1620.08,1612.12 1643.5,1598C 1675.75,1578.88 1709.75,1563.54 1745.5,1552C 1732.65,1528.45 1726.82,1503.28 1728,1476.5C 1732.6,1445.23 1749.77,1424.06 1779.5,1413C 1799.69,1405.77 1820.52,1402.61 1842,1403.5C 1858.24,1403.41 1874.41,1404.41 1890.5,1406.5C 1895,1359.82 1908.84,1316.16 1932,1275.5C 1968.02,1219.61 2016.52,1205.11 2077.5,1232C 2103.2,1245.85 2126.2,1263.35 2146.5,1284.5C 2178.76,1251.05 2214.1,1221.55 2252.5,1196C 2283.74,1175.53 2317.74,1162.7 2354.5,1157.5 Z"/></g>
<g><path style="opacity:1" fill="#0603ff" d="M 282.5,1162.5 C 354.833,1187.83 427.167,1213.17 499.5,1238.5C 493.726,1257.66 487.059,1276.49 479.5,1295C 438.492,1303.33 397.492,1311.67 356.5,1320C 331.937,1324.26 307.271,1327.76 282.5,1330.5C 337.154,1348.5 391.488,1367.5 445.5,1387.5C 446.023,1390.51 445.523,1393.51 444,1396.5C 439.655,1409.7 434.822,1422.7 429.5,1435.5C 357.39,1409.69 285.39,1383.69 213.5,1357.5C 221.27,1336.69 228.937,1315.86 236.5,1295C 272.443,1286.74 308.443,1278.74 344.5,1271C 370.653,1266.44 396.987,1263.44 423.5,1262C 408.167,1257.89 392.834,1253.56 377.5,1249C 340.427,1236.25 303.427,1223.42 266.5,1210.5C 272.031,1194.57 277.364,1178.57 282.5,1162.5 Z"/></g>
<g><path style="opacity:1" fill="#cc9933" d="M 2355.5,1182.5 C 2395.27,1180.97 2425.11,1197.3 2445,1231.5C 2459.74,1259.72 2468.4,1289.72 2471,1321.5C 2474.7,1367.3 2473.37,1412.96 2467,1458.5C 2463.34,1482.6 2459.18,1506.6 2454.5,1530.5C 2396.94,1519.21 2338.94,1511.04 2280.5,1506C 2257.64,1449.78 2229.48,1396.61 2196,1346.5C 2185.65,1331.81 2174.82,1317.47 2163.5,1303.5C 2197.94,1266.54 2236.6,1235.04 2279.5,1209C 2303.28,1195.24 2328.61,1186.41 2355.5,1182.5 Z"/></g>
<g><path style="opacity:1" fill="#cc9933" d="M 2013.5,1243.5 C 2040.31,1243.05 2064.64,1250.55 2086.5,1266C 2100.84,1276.43 2114.34,1287.93 2127,1300.5C 2129,1302.5 2129,1304.5 2127,1306.5C 2089.1,1349.02 2054.6,1394.02 2023.5,1441.5C 1988.34,1428.44 1952.34,1418.44 1915.5,1411.5C 1919.33,1371.5 1930.17,1333.5 1948,1297.5C 1959.22,1275.28 1976.06,1258.78 1998.5,1248C 2003.58,1246.32 2008.58,1244.82 2013.5,1243.5 Z"/></g>
<g><path style="opacity:1" fill="#0603ff" d="M 3255.5,1266.5 C 3258.39,1266.22 3259.89,1267.55 3260,1270.5C 3277.3,1330.73 3294.8,1390.89 3312.5,1451C 3312.09,1451.95 3311.43,1452.61 3310.5,1453C 3296.84,1456.94 3283.18,1460.78 3269.5,1464.5C 3264.14,1443.39 3258.31,1422.39 3252,1401.5C 3251.88,1399.43 3250.88,1398.09 3249,1397.5C 3190.19,1414.44 3131.52,1431.77 3073,1449.5C 3067.37,1431.96 3062.2,1414.29 3057.5,1396.5C 3117.02,1379.77 3176.35,1362.44 3235.5,1344.5C 3229.17,1323.17 3222.83,1301.84 3216.5,1280.5C 3216.82,1279.35 3217.48,1278.52 3218.5,1278C 3231.04,1274.43 3243.37,1270.6 3255.5,1266.5 Z"/></g>
<g><path style="opacity:1" fill="#cc9933" d="M 2145.5,1322.5 C 2153.79,1331.73 2161.63,1341.4 2169,1351.5C 2201.64,1398.76 2229.14,1449.09 2251.5,1502.5C 2250.33,1502.83 2249.17,1503.17 2248,1503.5C 2218.86,1501.78 2189.69,1500.62 2160.5,1500C 2123.88,1481.69 2086.54,1465.02 2048.5,1450C 2077.98,1405.35 2110.31,1362.85 2145.5,1322.5 Z"/></g>
<g><path style="opacity:1" fill="#cc9934" d="M 1822.5,1428.5 C 1843.93,1427.88 1865.26,1428.88 1886.5,1431.5C 1884.8,1460.8 1884.13,1490.14 1884.5,1519.5C 1846.08,1525.22 1808.24,1533.55 1771,1544.5C 1770.23,1544.36 1769.56,1544.02 1769,1543.5C 1757.68,1522.89 1752.35,1500.89 1753,1477.5C 1755.64,1461.2 1764.14,1449.03 1778.5,1441C 1792.59,1434.36 1807.26,1430.19 1822.5,1428.5 Z"/></g>
<g><path style="opacity:1" fill="#cc9934" d="M 1911.5,1435.5 C 1943.97,1442.45 1975.97,1451.28 2007.5,1462C 2008.43,1462.39 2009.09,1463.05 2009.5,1464C 2001.43,1478.15 1993.09,1492.15 1984.5,1506C 1959.49,1508.75 1934.49,1511.58 1909.5,1514.5C 1909.16,1488.14 1909.83,1461.8 1911.5,1435.5 Z"/></g>
<g><path style="opacity:1" fill="#0603ff" d="M 420.5,1468.5 C 422.167,1468.5 423.833,1468.5 425.5,1468.5C 423.153,1488.3 420.153,1507.96 416.5,1527.5C 395.651,1531.88 374.818,1536.21 354,1540.5C 350.833,1563.83 347.667,1587.17 344.5,1610.5C 344.57,1611.77 344.903,1612.94 345.5,1614C 364.408,1622.37 383.241,1630.87 402,1639.5C 400.255,1658.53 397.922,1677.53 395,1696.5C 322.787,1661.31 250.621,1625.98 178.5,1590.5C 178.167,1589.83 177.833,1589.17 177.5,1588.5C 180.828,1564.87 183.828,1541.2 186.5,1517.5C 264.76,1501.8 342.76,1485.46 420.5,1468.5 Z"/></g>
<g><path style="opacity:1" fill="#cc9a36" d="M 2034.5,1471.5 C 2057.34,1480.5 2080.01,1490 2102.5,1500C 2073.47,1500.57 2044.47,1501.57 2015.5,1503C 2021.97,1492.56 2028.3,1482.06 2034.5,1471.5 Z"/></g>
<g><path style="opacity:1" fill="#0803ff" d="M 3309.5,1516.5 C 3312.5,1516.5 3315.5,1516.5 3318.5,1516.5C 3320.79,1534.14 3322.79,1551.8 3324.5,1569.5C 3248.5,1579.5 3172.5,1589.5 3096.5,1599.5C 3094.99,1581.45 3092.99,1563.45 3090.5,1545.5C 3163.67,1536.19 3236.67,1526.52 3309.5,1516.5 Z"/></g>
<g><path style="opacity:1" fill="#cc9933" d="M 2088.5,1524.5 C 2110.5,1524.33 2132.5,1524.5 2154.5,1525C 2201.06,1548.52 2245.89,1574.68 2289,1603.5C 2313.07,1678.51 2329.74,1755.18 2339,1833.5C 2339.67,1838.5 2339.67,1843.5 2339,1848.5C 2333.04,1859.59 2327.21,1870.75 2321.5,1882C 2269.91,1886.01 2218.24,1887.34 2166.5,1886C 2084.53,1842.48 2007.86,1791.31 1936.5,1732.5C 1931.71,1714.41 1928.55,1696.07 1927,1677.5C 1948.51,1627.14 1972.68,1578.14 1999.5,1530.5C 2029.27,1527.73 2058.94,1525.73 2088.5,1524.5 Z"/></g>
<g><path style="opacity:1" fill="#cd9b38" d="M 2211.5,1527.5 C 2228.39,1526.87 2245.39,1527.7 2262.5,1530C 2267.42,1541.32 2271.59,1552.82 2275,1564.5C 2254.45,1551.11 2233.28,1538.78 2211.5,1527.5 Z"/></g>
<g><path style="opacity:1" fill="#cc9933" d="M 2291.5,1532.5 C 2344.2,1537.22 2396.53,1544.55 2448.5,1554.5C 2439.58,1591.42 2428.75,1627.75 2416,1663.5C 2381.91,1636.12 2346.57,1610.45 2310,1586.5C 2303.72,1568.49 2297.55,1550.49 2291.5,1532.5 Z"/></g>
<g><path style="opacity:1" fill="#cc9a35" d="M 1958.5,1533.5 C 1961.9,1533.18 1965.23,1533.51 1968.5,1534.5C 1950.95,1566.94 1934.45,1599.94 1919,1633.5C 1914.21,1602.68 1911.54,1571.68 1911,1540.5C 1926.96,1538.37 1942.79,1536.04 1958.5,1533.5 Z"/></g>
<g><path style="opacity:1" fill="#fcfbff" d="M 309.5,1543.5 C 310.833,1543.5 312.167,1543.5 313.5,1543.5C 310.906,1562.17 308.24,1580.84 305.5,1599.5C 277.188,1585.84 248.521,1573.01 219.5,1561C 249.807,1556.1 279.807,1550.27 309.5,1543.5 Z"/></g>
<g><path style="opacity:1" fill="#cc9934" d="M 1880.5,1544.5 C 1882.17,1544.5 1883.83,1544.5 1885.5,1544.5C 1887.45,1588.12 1892.11,1631.46 1899.5,1674.5C 1898.31,1681.54 1895.98,1688.21 1892.5,1694.5C 1857.92,1663.43 1826.75,1629.43 1799,1592.5C 1793.3,1584.3 1787.8,1575.97 1782.5,1567.5C 1814.99,1558.54 1847.66,1550.88 1880.5,1544.5 Z"/></g>
<g><path style="opacity:1" fill="#cc9933" d="M 2472.5,1560.5 C 2533.05,1573.4 2591.05,1593.57 2646.5,1621C 2673.28,1634.48 2696.45,1652.65 2716,1675.5C 2735.3,1702.15 2735.3,1728.82 2716,1755.5C 2700.15,1773.69 2681.65,1788.52 2660.5,1800C 2634.92,1813.96 2608.25,1824.96 2580.5,1833C 2551.23,1792.37 2518.23,1754.7 2481.5,1720C 2467.3,1706.8 2452.8,1693.96 2438,1681.5C 2448.04,1649.36 2457.71,1617.03 2467,1584.5C 2468.84,1576.49 2470.67,1568.49 2472.5,1560.5 Z"/></g>
<g><path style="opacity:1" fill="#cc9933" d="M 1753.5,1575.5 C 1755.29,1575.21 1756.95,1575.55 1758.5,1576.5C 1776.57,1605.3 1797.07,1632.3 1820,1657.5C 1840.23,1679.07 1861.07,1699.9 1882.5,1720C 1866.32,1761.71 1852.65,1804.21 1841.5,1847.5C 1785.44,1834.65 1731.77,1815.15 1680.5,1789C 1663.46,1779.48 1647.46,1768.48 1632.5,1756C 1588.64,1716.2 1588.64,1676.53 1632.5,1637C 1655.39,1619.04 1680.39,1604.37 1707.5,1593C 1722.82,1586.84 1738.15,1581.01 1753.5,1575.5 Z"/></g>
<g><path style="opacity:1" fill="#cc9934" d="M 2321.5,1624.5 C 2351.49,1644.66 2380.15,1666.49 2407.5,1690C 2393.52,1728.13 2378.02,1765.63 2361,1802.5C 2351.37,1742.4 2338.2,1683.07 2321.5,1624.5 Z"/></g>
<g><path style="opacity:1" fill="#0603ff" d="M 3205.5,1632.5 C 3247.91,1629.57 3283.41,1643.57 3312,1674.5C 3340.91,1715.05 3347.24,1759.05 3331,1806.5C 3316.53,1843.3 3290.03,1866.14 3251.5,1875C 3211.88,1883.62 3175.88,1875.96 3143.5,1852C 3114.43,1825.16 3100.43,1791.83 3101.5,1752C 3100.96,1717.42 3112.63,1687.76 3136.5,1663C 3156.4,1645.72 3179.4,1635.55 3205.5,1632.5 Z"/></g>
<g><path style="opacity:1" fill="#fefeff" d="M 3206.5,1690.5 C 3231.72,1688.05 3254.72,1693.89 3275.5,1708C 3296.97,1728.4 3302.47,1752.56 3292,1780.5C 3278.44,1804.88 3257.61,1818.04 3229.5,1820C 3201.2,1823.57 3177.04,1815.4 3157,1795.5C 3139,1769.14 3139,1742.81 3157,1716.5C 3170.7,1702.4 3187.2,1693.73 3206.5,1690.5 Z"/></g>
<g><path style="opacity:1" fill="#cc9933" d="M 2427.5,1706.5 C 2476.4,1745.73 2519.06,1790.73 2555.5,1841.5C 2493.99,1859.27 2431.33,1871.27 2367.5,1877.5C 2366.96,1867.83 2366.79,1858.17 2367,1848.5C 2389.67,1802.18 2409.83,1754.84 2427.5,1706.5 Z"/></g>
<g><path style="opacity:1" fill="#0502ff" d="M 386.5,1728.5 C 389.167,1728.5 391.833,1728.5 394.5,1728.5C 395.723,1746.51 397.056,1764.51 398.5,1782.5C 366.845,1785 335.179,1787.33 303.5,1789.5C 306.143,1822.48 308.476,1855.48 310.5,1888.5C 337.175,1886.53 363.842,1884.37 390.5,1882C 395.864,1881.17 401.198,1881.34 406.5,1882.5C 408.328,1900.11 409.662,1917.78 410.5,1935.5C 334.146,1941.23 257.812,1947.23 181.5,1953.5C 180.476,1935.47 179.142,1917.47 177.5,1899.5C 206.476,1896.95 235.476,1894.61 264.5,1892.5C 261.99,1859.84 259.656,1827.18 257.5,1794.5C 228.16,1796.37 198.826,1798.37 169.5,1800.5C 168.034,1782.51 166.701,1764.51 165.5,1746.5C 239.364,1741.09 313.03,1735.09 386.5,1728.5 Z"/></g>
<g><path style="opacity:1" fill="#cc9a35" d="M 1902.5,1737.5 C 1906.46,1740.29 1910.29,1743.29 1914,1746.5C 1923.47,1787.58 1934.97,1828.08 1948.5,1868C 1920.61,1864.61 1892.95,1859.78 1865.5,1853.5C 1875.82,1814.2 1888.15,1775.53 1902.5,1737.5 Z"/></g>
<g><path style="opacity:1" fill="#cc9934" d="M 1946.5,1773.5 C 1999.03,1813.78 2054.03,1850.62 2111.5,1884C 2066.33,1882.62 2021.33,1878.95 1976.5,1873C 1964.98,1840.28 1954.98,1807.11 1946.5,1773.5 Z"/></g>
<g><path style="opacity:1" fill="#cc9933" d="M 2565.5,1864.5 C 2569.18,1863.73 2571.68,1865.06 2573,1868.5C 2581.3,1883.1 2587.97,1898.44 2593,1914.5C 2604.35,1958.46 2587.85,1984.96 2543.5,1994C 2515.17,1998.61 2486.84,1998.61 2458.5,1994C 2429.06,1988.89 2400.06,1982.06 2371.5,1973.5C 2370.78,1949.82 2370.12,1926.15 2369.5,1902.5C 2421.05,1897.24 2472.05,1888.74 2522.5,1877C 2537.09,1873.27 2551.42,1869.11 2565.5,1864.5 Z"/></g>
<g><path style="opacity:1" fill="#cc9933" d="M 1858.5,1877.5 C 1891.59,1884.4 1924.75,1890.73 1958,1896.5C 1984.89,1972.95 2021.22,2044.29 2067,2110.5C 2081.19,2129.86 2096.69,2148.19 2113.5,2165.5C 2078.13,2200.7 2037.46,2228.2 1991.5,2248C 1924.68,2273.16 1877.51,2252.99 1850,2187.5C 1839.53,2158.06 1833.86,2127.73 1833,2096.5C 1832.33,2075.83 1832.33,2055.17 1833,2034.5C 1837.18,1981.44 1845.68,1929.1 1858.5,1877.5 Z"/></g>
<g><path style="opacity:1" fill="#cc9933" d="M 1986.5,1899.5 C 2044.63,1906.39 2102.96,1910.56 2161.5,1912C 2198.08,1931.29 2235.41,1948.96 2273.5,1965C 2239.69,2019.11 2201.86,2070.27 2160,2118.5C 2151.02,2128.65 2141.52,2138.32 2131.5,2147.5C 2115.01,2131.52 2100.18,2114.18 2087,2095.5C 2044.84,2034.86 2011.34,1969.53 1986.5,1899.5 Z"/></g>
<g><path style="opacity:1" fill="#cd9b37" d="M 2337.5,1905.5 C 2340.17,1905.5 2342.83,1905.5 2345.5,1905.5C 2345.5,1925.17 2345.5,1944.83 2345.5,1964.5C 2333.43,1961.42 2321.77,1957.26 2310.5,1952C 2319.89,1936.72 2328.89,1921.22 2337.5,1905.5 Z"/></g>
<g><path style="opacity:1" fill="#cd9a36" d="M 2290.5,1908.5 C 2295.87,1908.17 2301.21,1908.51 2306.5,1909.5C 2300.13,1920.04 2293.97,1930.7 2288,1941.5C 2287.28,1942.06 2286.44,1942.39 2285.5,1942.5C 2262.45,1933.14 2239.79,1922.98 2217.5,1912C 2242.02,1911.32 2266.35,1910.15 2290.5,1908.5 Z"/></g>
<g><path style="opacity:1" fill="#0603ff" d="M 3101.5,1917.5 C 3170.24,1927.79 3238.91,1938.62 3307.5,1950C 3314.62,1951.06 3321.62,1952.56 3328.5,1954.5C 3324.73,1976.14 3321.06,1997.8 3317.5,2019.5C 3285.83,2033 3254.17,2046.5 3222.5,2060C 3195.66,2070.21 3168.33,2078.88 3140.5,2086C 3154.45,2087.66 3168.45,2089 3182.5,2090C 3222.81,2096.38 3263.14,2102.55 3303.5,2108.5C 3300.4,2125.1 3297.73,2141.76 3295.5,2158.5C 3219.79,2146.83 3144.12,2134.83 3068.5,2122.5C 3071.08,2102.68 3074.41,2083.02 3078.5,2063.5C 3116.17,2048.33 3153.83,2033.17 3191.5,2018C 3215.97,2009.07 3240.63,2000.73 3265.5,1993C 3208.41,1985.24 3151.41,1976.57 3094.5,1967C 3093.94,1966.28 3093.61,1965.44 3093.5,1964.5C 3096.49,1948.87 3099.16,1933.2 3101.5,1917.5 Z"/></g>
<g><path style="opacity:1" fill="#cc9933" d="M 2296.5,1974.5 C 2312.02,1980.23 2327.68,1985.56 2343.5,1990.5C 2341.66,2039.53 2331.83,2086.86 2314,2132.5C 2305.36,2153.45 2292.53,2171.28 2275.5,2186C 2252.35,2202.68 2227.35,2206.01 2200.5,2196C 2181.85,2188.69 2165.19,2178.35 2150.5,2165C 2206.3,2106.73 2254.97,2043.23 2296.5,1974.5 Z"/></g>
<g><path style="opacity:1" fill="#0603ff" d="M 397.5,1979.5 C 399.288,1979.21 400.955,1979.55 402.5,1980.5C 429.21,2023.01 442.044,2069.34 441,2119.5C 434.99,2173.18 405.823,2206.68 353.5,2220C 303.057,2229.85 262.89,2214.02 233,2172.5C 206.901,2130.44 196.401,2084.77 201.5,2035.5C 216.162,2034.94 230.829,2035.28 245.5,2036.5C 241.176,2069.71 246.342,2101.38 261,2131.5C 280.707,2163.07 308.541,2173.57 344.5,2163C 378.559,2150.25 395.559,2125.58 395.5,2089C 394.706,2071.66 390.54,2055.16 383,2039.5C 382.275,2038.94 381.442,2038.61 380.5,2038.5C 366.452,2041.71 352.452,2045.04 338.5,2048.5C 338.167,2049.17 337.833,2049.83 337.5,2050.5C 340.229,2062.31 342.896,2074.14 345.5,2086C 345.167,2086.83 344.833,2087.67 344.5,2088.5C 331.159,2091.5 317.825,2094.5 304.5,2097.5C 297.834,2066.84 291.168,2036.18 284.5,2005.5C 322.417,1997.35 360.084,1988.69 397.5,1979.5 Z"/></g>
<g><path style="opacity:1" fill="#fdfefd" d="M 1371.5,2350.5 C 1424.65,2346.65 1462.49,2368.65 1485,2416.5C 1501.86,2463.86 1492.36,2505.03 1456.5,2540C 1422.53,2566.79 1384.86,2573.46 1343.5,2560C 1312.32,2545.47 1291.82,2521.64 1282,2488.5C 1270.19,2444.61 1280.69,2407.11 1313.5,2376C 1330.85,2362.82 1350.18,2354.32 1371.5,2350.5 Z"/></g>
<g><path style="opacity:1" fill="#cc9933" d="M 1374.5,2386.5 C 1420.66,2384.14 1447.82,2405.81 1456,2451.5C 1457.45,2497.72 1435.29,2524.22 1389.5,2531C 1356.06,2532.02 1332.56,2517.19 1319,2486.5C 1303.92,2434.31 1322.42,2400.98 1374.5,2386.5 Z"/></g>
<g><path style="opacity:1" fill="#0f08ff" d="M 3003.5,2417.5 C 3005.07,2417.94 3006.24,2418.94 3007,2420.5C 3017.75,2441.66 3028.75,2462.66 3040,2483.5C 3053.41,2491.9 3067.07,2499.9 3081,2507.5C 3078,2515.82 3073.67,2523.49 3068,2530.5C 3055.43,2523.47 3042.93,2516.3 3030.5,2509C 3004.5,2508.67 2978.5,2508.33 2952.5,2508C 2957.04,2499.75 2961.71,2491.59 2966.5,2483.5C 2968.17,2483.17 2969.83,2482.83 2971.5,2482.5C 2987.5,2484.19 3003.5,2485.36 3019.5,2486C 3009.31,2471.97 2999.31,2457.81 2989.5,2443.5C 2994.63,2435.05 2999.29,2426.38 3003.5,2417.5 Z"/></g>
<g><path style="opacity:1" fill="#0c06ff" d="M 517.5,2450.5 C 520.808,2449.97 522.974,2451.31 524,2454.5C 528.08,2462.33 532.413,2470 537,2477.5C 538.187,2479.04 538.52,2480.71 538,2482.5C 511.952,2511.71 486.118,2541.04 460.5,2570.5C 455.7,2562.4 451.033,2554.23 446.5,2546C 453.374,2537.96 460.041,2529.8 466.5,2521.5C 461.684,2512.54 456.85,2503.54 452,2494.5C 451.128,2492.39 449.628,2491.05 447.5,2490.5C 438.077,2492.52 428.743,2494.86 419.5,2497.5C 414.434,2489.76 409.768,2481.76 405.5,2473.5C 442.816,2465.3 480.149,2457.64 517.5,2450.5 Z"/></g>
<g><path style="opacity:1" fill="#f9f8ff" d="M 508.5,2474.5 C 509.873,2474.34 511.207,2474.51 512.5,2475C 501.964,2485.87 491.798,2497.03 482,2508.5C 477.753,2500.34 473.253,2492.34 468.5,2484.5C 482.034,2481.53 495.368,2478.2 508.5,2474.5 Z"/></g>
<g><path style="opacity:1" fill="#0c06ff" d="M 2952.5,2517.5 C 2957.64,2522.48 2962.3,2527.98 2966.5,2534C 2952.06,2544.72 2941.89,2558.55 2936,2575.5C 2934.42,2596.26 2943.59,2609.76 2963.5,2616C 2979.28,2618.19 2992.12,2613.03 3002,2600.5C 3005.79,2595.58 3008.46,2590.24 3010,2584.5C 3004.31,2579.97 2998.47,2575.64 2992.5,2571.5C 2988.85,2577.14 2984.85,2582.47 2980.5,2587.5C 2974.86,2583.85 2969.53,2579.85 2964.5,2575.5C 2973.14,2563.03 2981.97,2550.69 2991,2538.5C 3007.13,2549.64 3022.97,2561.14 3038.5,2573C 3031.66,2597.71 3018.33,2618.04 2998.5,2634C 2971.54,2650.35 2947.04,2647.18 2925,2624.5C 2910.61,2605.45 2907.94,2584.78 2917,2562.5C 2924.98,2544.37 2936.81,2529.37 2952.5,2517.5 Z"/></g>
<g><path style="opacity:1" fill="#0d07ff" d="M 559.5,2520.5 C 572.209,2532.53 583.042,2546.2 592,2561.5C 600.696,2574.95 604.363,2589.62 603,2605.5C 599.22,2623.61 589.053,2636.78 572.5,2645C 554.952,2653.98 537.619,2653.65 520.5,2644C 508.421,2636.59 498.254,2627.09 490,2615.5C 482.692,2605.52 476.192,2595.02 470.5,2584C 499.851,2562.33 529.518,2541.16 559.5,2520.5 Z"/></g>
<g><path style="opacity:1" fill="#fdfdff" d="M 559.5,2552.5 C 570.877,2562.58 577.543,2575.25 579.5,2590.5C 577.359,2605.47 569.359,2615.97 555.5,2622C 538.325,2628.16 523.825,2624.33 512,2610.5C 508.667,2605.83 505.333,2601.17 502,2596.5C 501.333,2595.5 501.333,2594.5 502,2593.5C 521.498,2580.18 540.664,2566.51 559.5,2552.5 Z"/></g>
<g><path style="opacity:1" fill="#0b06ff" d="M 624.5,2609.5 C 630.916,2616.76 637.25,2624.26 643.5,2632C 627.153,2657.7 609.82,2682.7 591.5,2707C 619.45,2696.18 647.784,2686.01 676.5,2676.5C 678.029,2676.53 679.196,2677.2 680,2678.5C 684.833,2684.83 689.667,2691.17 694.5,2697.5C 656.95,2710.02 619.284,2722.35 581.5,2734.5C 574.123,2726.75 567.457,2718.42 561.5,2709.5C 583.022,2676.45 604.022,2643.11 624.5,2609.5 Z"/></g>
<g><path style="opacity:1" fill="#0b06ff" d="M 2881.5,2626.5 C 2915.7,2625.01 2938.54,2640.35 2950,2672.5C 2953.26,2703.14 2941.76,2726.31 2915.5,2742C 2887.49,2753.54 2863.66,2747.71 2844,2724.5C 2827.01,2699.94 2827.35,2675.6 2845,2651.5C 2854.58,2639.3 2866.75,2630.97 2881.5,2626.5 Z"/></g>
<g><path style="opacity:1" fill="#fdfdff" d="M 2878.5,2652.5 C 2902.69,2651.87 2918.85,2662.87 2927,2685.5C 2928.81,2703.34 2921.31,2715.17 2904.5,2721C 2880.8,2722.33 2864.63,2711.83 2856,2689.5C 2853.89,2671.15 2861.39,2658.82 2878.5,2652.5 Z"/></g>
<g><path style="opacity:1" fill="#0a05ff" d="M 708.5,2712.5 C 709.873,2712.34 711.207,2712.51 712.5,2713C 720.916,2720.74 728.583,2729.08 735.5,2738C 718.146,2773.21 700.146,2808.04 681.5,2842.5C 674.131,2836.13 667.464,2829.13 661.5,2821.5C 666.439,2812.62 671.106,2803.62 675.5,2794.5C 669.884,2787.71 664.05,2781.05 658,2774.5C 655.95,2772.11 653.616,2770.11 651,2768.5C 642,2772.83 633,2777.17 624,2781.5C 616.846,2775.68 610.346,2769.18 604.5,2762C 639.348,2745.74 674.015,2729.24 708.5,2712.5 Z"/></g>
<g><path style="opacity:1" fill="#0b06ff" d="M 2777.5,2730.5 C 2799.46,2750.79 2821.46,2771.12 2843.5,2791.5C 2855.15,2779.68 2866.65,2767.68 2878,2755.5C 2883.35,2760.68 2888.52,2766.01 2893.5,2771.5C 2876.18,2789.98 2858.68,2808.32 2841,2826.5C 2814.33,2801.17 2787.67,2775.83 2761,2750.5C 2761.04,2748.72 2761.71,2747.05 2763,2745.5C 2768.04,2740.63 2772.87,2735.63 2777.5,2730.5 Z"/></g>
<g><path style="opacity:1" fill="#faf9ff" d="M 708.5,2736.5 C 709.525,2736.9 709.692,2737.56 709,2738.5C 701.413,2751.34 694.08,2764.34 687,2777.5C 681.199,2770.7 675.032,2764.2 668.5,2758C 682.341,2751.58 695.674,2744.42 708.5,2736.5 Z"/></g>
<g><path style="opacity:1" fill="#0c06ff" d="M 764.5,2770.5 C 773.516,2777.35 782.182,2784.69 790.5,2792.5C 787.348,2809.76 784.515,2827.1 782,2844.5C 779.288,2857.34 776.288,2870.01 773,2882.5C 788.867,2860.96 805.867,2840.29 824,2820.5C 830.167,2826 836.333,2831.5 842.5,2837C 818.354,2865.45 793.854,2893.61 769,2921.5C 763.443,2916.31 757.61,2911.48 751.5,2907C 749.323,2905.5 747.99,2903.5 747.5,2901C 752.168,2869.52 758.002,2838.35 765,2807.5C 747.475,2829.2 729.475,2850.54 711,2871.5C 704.7,2866.27 698.533,2860.94 692.5,2855.5C 716.546,2827.13 740.546,2798.79 764.5,2770.5 Z"/></g>
<g><path style="opacity:1" fill="#0a05ff" d="M 2737.5,2779.5 C 2767.11,2777.05 2788.61,2789.05 2802,2815.5C 2812.11,2848.82 2802.28,2874.66 2772.5,2893C 2740.36,2907.4 2714.53,2899.9 2695,2870.5C 2679.66,2836.51 2687.49,2809.01 2718.5,2788C 2724.7,2784.56 2731.03,2781.73 2737.5,2779.5 Z"/></g>
<g><path style="opacity:1" fill="#fdfdff" d="M 2733.5,2804.5 C 2755.52,2803.6 2771.02,2813.27 2780,2833.5C 2785.38,2851.24 2779.88,2864.41 2763.5,2873C 2751.61,2877.28 2740.61,2875.61 2730.5,2868C 2719.04,2859.25 2712.71,2847.75 2711.5,2833.5C 2712.78,2819.22 2720.12,2809.55 2733.5,2804.5 Z"/></g>
<g><path style="opacity:1" fill="#0a06ff" d="M 2655.5,2844.5 C 2657.39,2844.3 2658.89,2844.96 2660,2846.5C 2682.17,2874.83 2704.33,2903.17 2726.5,2931.5C 2719.41,2938.27 2711.74,2944.27 2703.5,2949.5C 2672.95,2938.71 2642.95,2926.88 2613.5,2914C 2631.03,2934.89 2648.19,2956.06 2665,2977.5C 2665.63,2979.9 2664.8,2981.74 2662.5,2983C 2657.33,2986.83 2652.17,2990.67 2647,2994.5C 2623.64,2965.31 2600.48,2935.98 2577.5,2906.5C 2585.92,2899.24 2594.75,2892.58 2604,2886.5C 2623.65,2893.27 2643.15,2900.44 2662.5,2908C 2671.52,2912.68 2680.52,2917.01 2689.5,2921C 2671.56,2901.23 2654.56,2880.73 2638.5,2859.5C 2644.01,2854.26 2649.68,2849.26 2655.5,2844.5 Z"/></g>
<g><path style="opacity:1" fill="#0f08ff" d="M 852.5,2868.5 C 885.15,2868.32 910.15,2881.99 927.5,2909.5C 922.142,2914.19 916.475,2918.52 910.5,2922.5C 902.735,2909.9 892.068,2900.73 878.5,2895C 855.299,2890.19 839.799,2899.02 832,2921.5C 829.646,2932.66 831.979,2942.66 839,2951.5C 847.539,2961.52 858.039,2968.69 870.5,2973C 867.367,2979.44 863.867,2985.61 860,2991.5C 844.303,2985.15 830.636,2975.82 819,2963.5C 795.139,2929.71 799.973,2900.54 833.5,2876C 839.718,2872.88 846.051,2870.38 852.5,2868.5 Z"/></g>
<g><path style="opacity:1" fill="#0c06ff" d="M 938.5,2912.5 C 946.369,2916.7 953.702,2921.7 960.5,2927.5C 939.189,2958.14 917.523,2988.47 895.5,3018.5C 888.324,3013.75 881.324,3008.75 874.5,3003.5C 896.089,2973.31 917.422,2942.98 938.5,2912.5 Z"/></g>
<g><path style="opacity:1" fill="#0b06ff" d="M 2565.5,2913.5 C 2567.78,2914.96 2569.62,2916.96 2571,2919.5C 2589.64,2948.97 2608.47,2978.3 2627.5,3007.5C 2620.46,3012.38 2613.29,3017.05 2606,3021.5C 2597.36,3008.69 2588.52,2996.02 2579.5,2983.5C 2566.03,2991.8 2552.7,3000.3 2539.5,3009C 2547.71,3021.92 2556.04,3034.75 2564.5,3047.5C 2557.77,3053.05 2550.6,3058.05 2543,3062.5C 2522.25,3031.34 2501.75,3000 2481.5,2968.5C 2488.57,2963.44 2495.9,2958.77 2503.5,2954.5C 2511.5,2966.17 2519.5,2977.83 2527.5,2989.5C 2539.83,2981.67 2552.17,2973.83 2564.5,2966C 2566.26,2965.28 2567.09,2964.11 2567,2962.5C 2559.5,2951 2552,2939.5 2544.5,2928C 2551.57,2923.14 2558.57,2918.31 2565.5,2913.5 Z"/></g>
<g><path style="opacity:1" fill="#0c07ff" d="M 975.5,2936.5 C 984.641,2941.91 993.641,2947.57 1002.5,2953.5C 1004.52,2984.72 1003.35,3015.72 999,3046.5C 1011.81,3022.71 1025.81,2999.71 1041,2977.5C 1047.75,2982.12 1054.58,2986.62 1061.5,2991C 1041.62,3022.58 1021.62,3054.08 1001.5,3085.5C 993.833,3080.83 986.167,3076.17 978.5,3071.5C 977.318,3038.39 978.151,3005.39 981,2972.5C 967.001,2997.17 952.001,3021.17 936,3044.5C 928.91,3040.37 922.076,3035.87 915.5,3031C 935.724,2999.62 955.724,2968.12 975.5,2936.5 Z"/></g>
<g><path style="opacity:1" fill="#0c06ff" d="M 2468.5,2976.5 C 2470.6,2976.2 2472.6,2976.53 2474.5,2977.5C 2476.48,2984.1 2478.15,2990.76 2479.5,2997.5C 2462.88,2999.23 2449.38,3006.56 2439,3019.5C 2429.59,3039.29 2433.43,3056.12 2450.5,3070C 2464.24,3077.3 2477.91,3076.97 2491.5,3069C 2498.6,3064.57 2505.1,3059.4 2511,3053.5C 2515.68,3057.84 2520.01,3062.51 2524,3067.5C 2523.96,3069.28 2523.29,3070.95 2522,3072.5C 2504.94,3089.7 2484.27,3099.03 2460,3100.5C 2436.23,3098.07 2419.9,3085.74 2411,3063.5C 2402.22,3033.89 2410.39,3010.05 2435.5,2992C 2445.82,2985.17 2456.82,2980.01 2468.5,2976.5 Z"/></g>
<g><path style="opacity:1" fill="#0c07ff" d="M 1081.5,3014.5 C 1112.96,3012.74 1139.29,3023.4 1160.5,3046.5C 1156.22,3052.28 1151.39,3057.62 1146,3062.5C 1131.55,3045.19 1113.05,3037.03 1090.5,3038C 1072.27,3045.28 1063.77,3058.78 1065,3078.5C 1067.49,3089.31 1073.32,3097.81 1082.5,3104C 1088.38,3107.41 1094.55,3110.24 1101,3112.5C 1105.58,3106.35 1109.41,3099.68 1112.5,3092.5C 1106.63,3089.4 1100.97,3086.07 1095.5,3082.5C 1098.17,3076.48 1101.34,3070.82 1105,3065.5C 1117.98,3072.16 1130.98,3078.83 1144,3085.5C 1144.67,3086.5 1144.67,3087.5 1144,3088.5C 1135.5,3104.83 1127,3121.17 1118.5,3137.5C 1094.83,3135.22 1073.83,3126.38 1055.5,3111C 1031.49,3085.6 1030.32,3059.1 1052,3031.5C 1060.32,3023.09 1070.15,3017.43 1081.5,3014.5 Z"/></g>
<g><path style="opacity:1" fill="#0b06ff" d="M 2378.5,3024.5 C 2379.98,3024.24 2381.31,3024.57 2382.5,3025.5C 2385.04,3031.41 2387.7,3037.24 2390.5,3043C 2375.65,3050.26 2360.65,3057.26 2345.5,3064C 2348.8,3070.76 2351.96,3077.59 2355,3084.5C 2368.76,3078.04 2382.59,3071.7 2396.5,3065.5C 2399.83,3070.82 2402.66,3076.49 2405,3082.5C 2405.75,3083.64 2405.58,3084.64 2404.5,3085.5C 2391.26,3091.37 2378.09,3097.37 2365,3103.5C 2366.93,3111.06 2369.77,3118.39 2373.5,3125.5C 2374.36,3126.58 2375.36,3126.75 2376.5,3126C 2391.41,3119.3 2406.24,3112.46 2421,3105.5C 2424.29,3111.92 2427.46,3118.42 2430.5,3125C 2406.71,3135.98 2382.88,3146.81 2359,3157.5C 2343.23,3123.62 2327.73,3089.62 2312.5,3055.5C 2334.56,3045.13 2356.56,3034.8 2378.5,3024.5 Z"/></g>
<g><path style="opacity:1" fill="#0b06ff" d="M 2301.5,3059.5 C 2302.68,3059.28 2303.68,3059.61 2304.5,3060.5C 2306.74,3066.37 2309.07,3072.21 2311.5,3078C 2301.17,3083 2290.83,3088 2280.5,3093C 2291.78,3120.22 2302.78,3147.55 2313.5,3175C 2306.23,3179.16 2298.56,3182.66 2290.5,3185.5C 2289.91,3185.29 2289.41,3184.96 2289,3184.5C 2278,3157.5 2267,3130.5 2256,3103.5C 2254.95,3102.48 2253.78,3102.32 2252.5,3103C 2243.13,3106.74 2233.79,3110.57 2224.5,3114.5C 2221.04,3107.79 2218.37,3100.79 2216.5,3093.5C 2245.22,3082.93 2273.55,3071.6 2301.5,3059.5 Z"/></g>
<g><path style="opacity:1" fill="#0f08ff" d="M 1220.5,3069.5 C 1242.06,3069.62 1260.72,3076.95 1276.5,3091.5C 1272.54,3097.76 1267.87,3103.43 1262.5,3108.5C 1252.42,3097.79 1240.08,3092.62 1225.5,3093C 1220.78,3095.44 1219.28,3099.27 1221,3104.5C 1221.67,3105.83 1222.33,3107.17 1223,3108.5C 1232.24,3115.8 1240.9,3123.8 1249,3132.5C 1259.72,3147.85 1258.55,3162.35 1245.5,3176C 1231.8,3185.26 1217.13,3186.92 1201.5,3181C 1187.82,3176.5 1176.16,3169 1166.5,3158.5C 1170.6,3152.61 1174.94,3146.95 1179.5,3141.5C 1188.21,3150.53 1198.55,3157.03 1210.5,3161C 1214.17,3161.67 1217.83,3161.67 1221.5,3161C 1227.97,3157.9 1229.8,3153.07 1227,3146.5C 1217.94,3137.29 1208.61,3128.29 1199,3119.5C 1188.27,3102.34 1190.77,3087.5 1206.5,3075C 1211.02,3072.45 1215.68,3070.61 1220.5,3069.5 Z"/></g>
<g><path style="opacity:1" fill="#0905ff" d="M 1313.5,3106.5 C 1333.64,3104.79 1352.64,3108.62 1370.5,3118C 1373,3119.67 1375.33,3121.51 1377.5,3123.5C 1374.34,3129.83 1370.67,3135.83 1366.5,3141.5C 1353.15,3131.58 1338.15,3127.41 1321.5,3129C 1307.16,3133.34 1298.33,3142.84 1295,3157.5C 1292.07,3177.48 1299.9,3191.31 1318.5,3199C 1328.49,3202.85 1338.82,3204.35 1349.5,3203.5C 1348.91,3210.49 1348.58,3217.49 1348.5,3224.5C 1326.33,3225.64 1306,3220.14 1287.5,3208C 1269.02,3192.56 1262.52,3173.06 1268,3149.5C 1275.32,3126.68 1290.48,3112.35 1313.5,3106.5 Z"/></g>
<g><path style="opacity:1" fill="#0b06ff" d="M 2142.5,3114.5 C 2188.93,3112.1 2210.76,3134.1 2208,3180.5C 2204.56,3196.26 2196.06,3208.43 2182.5,3217C 2161.94,3228.47 2139.94,3235.63 2116.5,3238.5C 2106.91,3203.4 2096.91,3168.4 2086.5,3133.5C 2104.43,3124.75 2123.09,3118.41 2142.5,3114.5 Z"/></g>
<g><path style="opacity:1" fill="#1008ff" d="M 1389.5,3123.5 C 1396.84,3124.89 1404.17,3126.39 1411.5,3128C 1413.57,3128.12 1414.91,3129.12 1415.5,3131C 1407.05,3166.75 1399.05,3202.58 1391.5,3238.5C 1382.89,3236.62 1374.22,3234.95 1365.5,3233.5C 1373.18,3196.77 1381.18,3160.1 1389.5,3123.5 Z"/></g>
<g><path style="opacity:1" fill="#0d07ff" d="M 1431.5,3135.5 C 1456.52,3139.39 1481.52,3143.39 1506.5,3147.5C 1505.41,3154.49 1504.41,3161.49 1503.5,3168.5C 1487.25,3166.21 1471.08,3163.54 1455,3160.5C 1452.75,3167.98 1451.59,3175.65 1451.5,3183.5C 1466.51,3185.72 1481.51,3188.06 1496.5,3190.5C 1495.34,3197.48 1494.34,3204.48 1493.5,3211.5C 1477.82,3209.28 1462.15,3206.94 1446.5,3204.5C 1445.17,3212.79 1444.17,3221.13 1443.5,3229.5C 1460.16,3232.17 1476.83,3234.83 1493.5,3237.5C 1492.89,3243.85 1492.05,3250.19 1491,3256.5C 1490.33,3257.58 1489.33,3258.25 1488,3258.5C 1463.19,3254.7 1438.53,3250.37 1414,3245.5C 1419.28,3208.79 1425.12,3172.12 1431.5,3135.5 Z"/></g>
<g><path style="opacity:1" fill="#0c06ff" d="M 2068.5,3135.5 C 2071.12,3135.23 2073.62,3135.56 2076,3136.5C 2082.39,3172.81 2088.55,3209.15 2094.5,3245.5C 2085.33,3247.08 2076.16,3248.75 2067,3250.5C 2044.14,3226.64 2023.14,3201.31 2004,3174.5C 2009.43,3202.33 2014.26,3230.33 2018.5,3258.5C 2010.77,3259.51 2003.11,3260.84 1995.5,3262.5C 1988.08,3225.66 1981.41,3188.66 1975.5,3151.5C 1986.44,3149.34 1997.44,3147.84 2008.5,3147C 2020.33,3160.17 2032.17,3173.33 2044,3186.5C 2051.72,3196.56 2059.06,3206.89 2066,3217.5C 2060.39,3191.38 2055.56,3165.05 2051.5,3138.5C 2057.39,3138.02 2063.05,3137.02 2068.5,3135.5 Z"/></g>
<g><path style="opacity:1" fill="#fdfdff" d="M 2135.5,3136.5 C 2163.61,3132.71 2178.94,3144.87 2181.5,3173C 2180.11,3190.06 2171.44,3201.73 2155.5,3208C 2149.34,3210.29 2143.01,3211.79 2136.5,3212.5C 2130.68,3189.88 2124.35,3167.38 2117.5,3145C 2118.52,3142.97 2120.19,3141.64 2122.5,3141C 2126.98,3139.56 2131.31,3138.06 2135.5,3136.5 Z"/></g>
<g><path style="opacity:1" fill="#0d07ff" d="M 1589.5,3239.5 C 1589.78,3240.29 1590.28,3240.96 1591,3241.5C 1591.5,3237.51 1591.67,3233.51 1591.5,3229.5C 1593.22,3206.72 1595.88,3184.05 1599.5,3161.5C 1607.48,3162.65 1615.48,3163.65 1623.5,3164.5C 1618.94,3201.51 1614.28,3238.51 1609.5,3275.5C 1599.69,3275.19 1590.02,3273.85 1580.5,3271.5C 1566.6,3242.14 1554.27,3212.14 1543.5,3181.5C 1539.95,3209.48 1536.61,3237.48 1533.5,3265.5C 1525.12,3264.87 1516.79,3263.87 1508.5,3262.5C 1513.31,3225.52 1517.98,3188.52 1522.5,3151.5C 1533.97,3152.29 1545.31,3153.96 1556.5,3156.5C 1564.76,3174.79 1572.93,3193.12 1581,3211.5C 1584.75,3220.58 1587.58,3229.91 1589.5,3239.5 Z"/></g>
<g><path style="opacity:1" fill="#0c06ff" d="M 1914.5,3159.5 C 1918.23,3159.18 1921.89,3159.51 1925.5,3160.5C 1943.17,3195.17 1960.83,3229.83 1978.5,3264.5C 1968.9,3266.55 1959.24,3267.71 1949.5,3268C 1944.77,3259.37 1940.43,3250.53 1936.5,3241.5C 1935.5,3241.17 1934.5,3240.83 1933.5,3240.5C 1922.52,3242.11 1911.52,3243.61 1900.5,3245C 1898,3255.33 1896.34,3265.83 1895.5,3276.5C 1886.15,3277.35 1876.81,3278.35 1867.5,3279.5C 1874.45,3240.76 1881.78,3202.09 1889.5,3163.5C 1898.01,3162.45 1906.34,3161.12 1914.5,3159.5 Z"/></g>
<g><path style="opacity:1" fill="#0c06ff" d="M 1681.5,3166.5 C 1695.02,3165.74 1708.35,3166.91 1721.5,3170C 1723.78,3170.47 1725.78,3171.47 1727.5,3173C 1725.47,3178.74 1723.64,3184.58 1722,3190.5C 1721.61,3191.43 1720.95,3192.09 1720,3192.5C 1707.8,3187.85 1695.3,3186.68 1682.5,3189C 1658.94,3198.29 1651.11,3215.12 1659,3239.5C 1666.66,3254.09 1678.83,3261.09 1695.5,3260.5C 1703.3,3260.53 1710.97,3259.53 1718.5,3257.5C 1719.17,3257.83 1719.83,3258.17 1720.5,3258.5C 1722.52,3265.06 1723.52,3271.56 1723.5,3278C 1702.69,3284.28 1682.02,3283.95 1661.5,3277C 1634.97,3264.11 1624.14,3242.95 1629,3213.5C 1634,3193.17 1646.17,3179 1665.5,3171C 1670.87,3169.16 1676.21,3167.66 1681.5,3166.5 Z"/></g>
<g><path style="opacity:1" fill="#0c06ff" d="M 1795.5,3259.5 C 1803.83,3259.5 1812.17,3259.5 1820.5,3259.5C 1820.5,3266.5 1820.5,3273.5 1820.5,3280.5C 1794.5,3280.96 1768.5,3281.29 1742.5,3281.5C 1741.7,3244.17 1741.04,3206.84 1740.5,3169.5C 1765.82,3168.63 1791.16,3168.29 1816.5,3168.5C 1816.5,3175.5 1816.5,3182.5 1816.5,3189.5C 1800.17,3190.11 1783.84,3190.45 1767.5,3190.5C 1767.5,3197.83 1767.5,3205.17 1767.5,3212.5C 1783.17,3212.5 1798.83,3212.5 1814.5,3212.5C 1814.5,3219.5 1814.5,3226.5 1814.5,3233.5C 1799.15,3233.31 1783.82,3233.64 1768.5,3234.5C 1768.5,3242.83 1768.5,3251.17 1768.5,3259.5C 1777.5,3259.5 1786.5,3259.5 1795.5,3259.5 Z"/></g>
<g><path style="opacity:1" fill="#f9f9ff" d="M 1908.5,3180.5 C 1915.12,3193.74 1921.79,3207.07 1928.5,3220.5C 1927.97,3221.19 1927.31,3221.69 1926.5,3222C 1918.44,3222.84 1910.44,3224.01 1902.5,3225.5C 1902.17,3225 1901.83,3224.5 1901.5,3224C 1904.54,3209.57 1906.88,3195.07 1908.5,3180.5 Z"/></g>
<g><path style="opacity:1" fill="#9b98ff" d="M 1591.5,3229.5 C 1591.67,3233.51 1591.5,3237.51 1591,3241.5C 1590.28,3240.96 1589.78,3240.29 1589.5,3239.5C 1590.17,3236.17 1590.83,3232.83 1591.5,3229.5 Z"/></g>
<g><path style="opacity:1" fill="#9a97ff" d="M 1795.5,3259.5 C 1803.98,3258.51 1812.65,3258.17 1821.5,3258.5C 1821.82,3266.02 1821.49,3273.35 1820.5,3280.5C 1820.5,3273.5 1820.5,3266.5 1820.5,3259.5C 1812.17,3259.5 1803.83,3259.5 1795.5,3259.5 Z"/></g>
</svg>
